<svg xmlns="http://www.w3.org/2000/svg" width="168.2" height="113" viewBox="0 0 168.2 113"><defs><style>.a{fill:#fff;}</style></defs><title>Asset 2</title><path class="a" d="M66.1,25.6a2.1,2.1,0,0,0,1.1-2A3.2,3.2,0,0,0,64,20.5a6.9,6.9,0,0,0-2.7.4l.3,1.9c.8-.4,3.3-.7,3.3.8a.9.9,0,0,1-1,.9H63v2.1h1a1.2,1.2,0,0,1,1.1,1.1c0,1.6-2.9,1-3.8.6l-.2,2.1a9,9,0,0,0,3.1.5,2.9,2.9,0,0,0,3-3.1A2.5,2.5,0,0,0,66.1,25.6Z"/><path class="a" d="M72,20.5c-2.5,0-3.5,2.3-3.5,5.2s1,5.2,3.5,5.2,3.5-2.3,3.5-5.2S74.5,20.5,72,20.5ZM72,29c-1.1,0-1.5-1.5-1.5-3.3s.4-3.3,1.5-3.3,1.5,1.5,1.5,3.3S73.1,29,72,29Z"/><path class="a" d="M84.4,20.6h-3V30.7h3C91.1,30.7,91.1,20.6,84.4,20.6Zm0,8.1h-1V22.6h1C88.3,22.6,88.3,28.7,84.4,28.7Z"/><path class="a" d="M94.4,20.2,90.1,30.7h2.3l.4-1.1h3.4l.4,1.1h2.3L94.6,20.2Zm-.8,7.5.9-2.6.9,2.6Z"/><polygon class="a" points="102.5 24.1 100.5 20.6 98 20.6 101.5 26.2 101.5 30.7 103.5 30.7 103.5 26.2 107.1 20.6 104.6 20.6 102.5 24.1"/><path class="a" d="M53.2,87a3.8,3.8,0,0,0,1.9-.5V83.3H53.6v2.2h-.4c-2.8,0-3-4.4,0-4.5a3.4,3.4,0,0,1,1.5.3l.2-1.5a4.9,4.9,0,0,0-1.7-.3C48.2,79.8,48.4,87,53.2,87Z"/><path class="a" d="M63.7,84.4V79.7H62.2v4.7a1.2,1.2,0,0,1-2.4,0V79.7H58.4v4.8C58.4,87.9,63.7,87.9,63.7,84.4Z"/><path class="a" d="M68.3,86.2h2.4l.3.8h1.6l-3.1-7.6h-.2L66.4,87H68Zm1.2-3.3.7,1.9H68.8Z"/><path class="a" d="M76.9,84.2h.7L79.1,87h1.7L79,84a2.2,2.2,0,0,0-.7-4.3H75.4V87h1.5Zm0-3.1h1.3a.8.8,0,0,1,0,1.6H76.9Z"/><path class="a" d="M84.7,86.2h2.4l.3.8H89L86,79.4h-.2L82.7,87h1.7Zm1.2-3.3.7,1.9H85.2Z"/><polygon class="a" points="93.3 83 97 87.1 97.3 87.1 97.3 79.7 95.9 79.7 95.9 83.8 92.2 79.5 91.8 79.5 91.8 87 93.3 87 93.3 83"/><polygon class="a" points="101.9 87 103.4 87 103.4 81.1 105.2 81.1 105.2 79.7 100.1 79.7 100.1 81.1 101.9 81.1 101.9 87"/><polygon class="a" points="111.8 85.5 109.5 85.5 109.5 84.1 111.4 84.1 111.4 82.6 109.5 82.6 109.5 81.1 111.7 81.1 111.7 79.7 108 79.7 108 87 111.8 87 111.8 85.5"/><polygon class="a" points="118.7 85.5 116.4 85.5 116.4 84.1 118.3 84.1 118.3 82.6 116.4 82.6 116.4 81.1 118.6 81.1 118.6 79.7 114.9 79.7 114.9 87 118.7 87 118.7 85.5"/><path class="a" d="M157.5,59.9a1.7,1.7,0,0,1,0-2l10.4-14.8a1.7,1.7,0,0,0-1.4-2.7H151.2a5.4,5.4,0,0,0-5.2-4H134.5V33.9a11.3,11.3,0,0,0-5.7-9.8L89.7,1.5a11.3,11.3,0,0,0-11.3,0L39.3,24.1a11.3,11.3,0,0,0-5.7,9.8v2.5H22.2a5.4,5.4,0,0,0-5.2,4H1.8A1.7,1.7,0,0,0,.4,43.1L10.7,57a1.7,1.7,0,0,1,0,2L.3,73.7a1.7,1.7,0,0,0,1.4,2.7H25.8a1.1,1.1,0,0,0,.5-2l-3.5-2H33.7v6.7a11.3,11.3,0,0,0,5.7,9.8l39.1,22.6a11.3,11.3,0,0,0,11.3,0l39.1-22.6a11.3,11.3,0,0,0,5.7-9.8V72.4h10.9l-3.5,2a1.1,1.1,0,0,0,.5,2h24a1.7,1.7,0,0,0,1.4-2.7ZM34.7,33.9A10.3,10.3,0,0,1,39.8,25L78.9,2.4a10.3,10.3,0,0,1,10.3,0L128.4,25a10.3,10.3,0,0,1,5.2,8.9v2.5H34.7ZM17.8,41.8a4.4,4.4,0,0,1,4.4-4.4H145.9a4.4,4.4,0,0,1,4.4,4.4V67a4.4,4.4,0,0,1-4.4,4.4H22.2A4.4,4.4,0,0,1,17.8,67Zm8,33.5H1.7a.7.7,0,0,1-.6-1.1L11.5,59.6a2.7,2.7,0,0,0,0-3.2L1.2,42.5a.7.7,0,0,1,.6-1.1H16.9c0,.1,0,.3,0,.4V67a5.4,5.4,0,0,0,2.6,4.6l.3.3,6,3.4Zm107.7,3.8a10.3,10.3,0,0,1-5.2,8.9L89.2,110.6a10.3,10.3,0,0,1-10.3,0L39.8,88a10.3,10.3,0,0,1-5.2-8.9V72.4h98.9ZM167,75a.7.7,0,0,1-.6.4h-24l6-3.3.3-.2a5.4,5.4,0,0,0,2.7-4.7V41.8c0-.1,0-.3,0-.4h15.1a.7.7,0,0,1,.6,1.1L156.6,57.3a2.7,2.7,0,0,0,0,3.2l10.3,13.7A.7.7,0,0,1,167,75Z"/><polygon class="a" points="30 54.4 33.3 57.9 36.7 54.4 36.7 61.7 39.4 61.7 39.4 48.4 38.5 48.4 33.3 54.1 28.1 48.4 27.3 48.4 27.3 61.7 30 61.7 30 54.4"/><path class="a" d="M48.7,61.9c9.1,0,9.1-13.6,0-13.6S39.6,61.9,48.7,61.9Zm0-10.9c5.3,0,5.3,8.1,0,8.1S43.4,51.1,48.7,51.1Z"/><polygon class="a" points="60.6 54.6 67.2 62 67.9 62 67.9 48.6 65.3 48.6 65.3 56 58.6 48.3 57.9 48.3 57.9 61.7 60.6 61.7 60.6 54.6"/><polygon class="a" points="77.7 59.1 73.5 59.1 73.5 56.5 77 56.5 77 53.8 73.5 53.8 73.5 51.2 77.5 51.2 77.5 48.6 70.9 48.6 70.9 61.7 77.7 61.7 77.7 59.1"/><polygon class="a" points="83.4 61.7 86 61.7 86 55.8 90.6 48.6 87.4 48.6 84.7 53.1 82 48.6 78.8 48.6 83.4 55.8 83.4 61.7"/><path class="a" d="M106.5,57.8a3.2,3.2,0,0,0-1.4-2.6,3.2,3.2,0,0,0,1.2-2.6,3.6,3.6,0,0,0-3.7-4H97.4V61.7h5.2A3.9,3.9,0,0,0,106.5,57.8ZM100,51.2h2.3a1.3,1.3,0,0,1,0,2.7H100Zm1.6,7.9H100V56.5h2.3a1.3,1.3,0,0,1,1.3,1.3,1.3,1.3,0,0,1-1.3,1.3Z"/><path class="a" d="M111.1,60.3h4.4l.5,1.4h3l-5.5-13.6h-.3l-5.5,13.6h3Zm2.2-5.9,1.2,3.4h-2.4Z"/><path class="a" d="M126.5,61.8a8.4,8.4,0,0,0,2.9-.6l-.3-2.7a5.6,5.6,0,0,1-2.5.6c-5.2,0-5.2-8,0-8a4.5,4.5,0,0,1,2.3.6l.3-2.7a6.4,6.4,0,0,0-2.6-.5C117.6,48.4,117.6,61.8,126.5,61.8Z"/><path class="a" d="M134.1,56.6l3.5,5.2h3.3l-4.6-6.7,4.3-6.5h-3.1l-3.3,5.2V48.6h-2.6V61.7h2.6Z"/></svg>