<svg xmlns="http://www.w3.org/2000/svg" width="154.9" height="28.2" viewBox="0 0 154.9 28.2"><defs><style>.a{fill:#e94e4f;}.b{fill:#fff;}</style></defs><title>Asset 1</title><path class="a" d="M17.2,26.6A.9.9,0,0,1,15.9,28L6.2,18.3,7.6,17Z"/><path class="a" d="M4.1,13.5l.7-.7L2.9,10.9a.4.4,0,1,1,.4-.6h.1L18.8,25.8a.4.4,0,1,1-.4.6h-.1L7.5,15.6l-.7.7L5.5,17.6,3.2,19.9l-.4-2.2L.4,17.2l2.4-2.4Z"/><path class="a" d="M14.7,10.6a.4.4,0,0,1,.5,0l9.4,9.4a.4.4,0,0,1-.4.6h-.1l-9.4-9.4A.4.4,0,0,1,14.7,10.6Z"/><path class="a" d="M2.3,9.7a1.3,1.3,0,0,0-.1,1.9h0l1.1,1.1L2.1,14.1,1,13A3.3,3.3,0,0,1,1,8.4L8.3,1A3.3,3.3,0,0,1,13,1l3.6,3.6,3.5-3.5a3.3,3.3,0,0,1,4.7,0h0l7.3,7.3a3.3,3.3,0,0,1,0,4.6h0l-5.9,5.9a.9.9,0,0,1-1.3,0L15.9,10A1.4,1.4,0,0,0,14,9.9a1.3,1.3,0,0,0-.1,1.9H14l9,9a.9.9,0,0,1,0,1.3h-.1l-2.5,2.5a.9.9,0,0,1-1.3,0L4.2,9.8A1.4,1.4,0,0,0,2.3,9.7ZM16.5,8.7a.3.3,0,0,0,.5,0h0l6.4-6.4a.3.3,0,0,0-.5-.5L16.5,8.2a.3.3,0,0,0,0,.5h0ZM5,8.7a.3.3,0,0,0,.5,0h0l6.4-6.4a.3.3,0,1,0-.5-.5L5,8.2a.3.3,0,0,0,0,.5H5Z"/><path class="b" d="M39.6,21.1a.2.2,0,0,1,.2-.2h1.7a1.3,1.3,0,0,1,1.4,1.5,1.2,1.2,0,0,1-.4,1,1.2,1.2,0,0,1,.5,1,1.4,1.4,0,0,1-1.4,1.5H39.8a.2.2,0,0,1-.2-.2V21.1Zm1,1.8h.9a.5.5,0,0,0,0-1h-.9Zm0,1.9h.9a.5.5,0,0,0,.5-.5h0a.5.5,0,0,0-.4-.5h-.9Z"/><path class="b" d="M47.6,20.8a2.5,2.5,0,1,1,0,5A2.5,2.5,0,1,1,47.6,20.8Zm0,1a1.5,1.5,0,0,0,0,3A1.5,1.5,0,0,0,47.6,21.8Z"/><path class="b" d="M54.7,20.8a2.5,2.5,0,1,1,0,5A2.5,2.5,0,1,1,54.7,20.8Zm0,1a1.5,1.5,0,0,0,0,3A1.5,1.5,0,0,0,54.7,21.8Z"/><path class="b" d="M59.8,20.9h.6a.2.2,0,0,1,.2.2v1.8L61.7,21h.8a.2.2,0,0,1,.2.2h0l-1.4,2.1,1.5,2.2a.2.2,0,0,1-.1.3h-1l-1.2-1.8v1.7a.2.2,0,0,1-.2.2h-.6a.2.2,0,0,1-.2-.2V21.1a.2.2,0,0,1,.2-.2Z"/><path class="b" d="M64.9,24.7l.2-.2h.1a2.2,2.2,0,0,0,1.1.3.5.5,0,0,0,.5-.5h0c0-.3-.2-.4-.5-.5s-1.4-.7-1.4-1.5a1.4,1.4,0,0,1,1.4-1.5h1.1v.7l-.2.2h-.8a.5.5,0,0,0-.5.5h0c0,.3.3.4.6.5s1.4.7,1.4,1.5a1.4,1.4,0,0,1-1.5,1.5,3,3,0,0,1-1.4-.3v-.8Z"/><path class="b" d="M48.9,6.6h.4a.2.2,0,0,1,.2.2h0v9.7a.2.2,0,0,1-.2.2H47.6a.2.2,0,0,1-.2-.2h0V11.2a.2.2,0,0,0-.3-.2H47L44.7,13h-.3l-2.2-2h-.4v5.3a.2.2,0,0,1-.2.2H39.8a.2.2,0,0,1-.2-.2h0V6.8a.2.2,0,0,1,.2-.2h.6l4.1,3.8h.3l4.1-3.8Z"/><path class="b" d="M54,16.5V7.9a.2.2,0,0,1,.2-.2h4.4a.2.2,0,0,1,.2.2h0V9.2a.2.2,0,0,1-.2.2H56.2a.2.2,0,0,0-.2.2h0V11a.2.2,0,0,0,.2.2h2.1a.2.2,0,0,1,.2.2h0v1.4a.2.2,0,0,1-.2.2H56.2a.2.2,0,0,0-.2.2h0v1.4a.2.2,0,0,0,.2.2h2.6a.2.2,0,0,1,.2.2h0v1.4a.2.2,0,0,1-.2.2H54.2A.2.2,0,0,1,54,16.5Z"/><path class="b" d="M67,7.3h0a.4.4,0,0,1,.4.3l3.6,8.8a.2.2,0,0,1-.1.3H69l-.3-.7H65.4l-.3.7H63.2a.2.2,0,0,1-.2-.2h0l3.6-8.8A.4.4,0,0,1,67,7.3Zm.8,6.4-.6-1.5h-.4l-.6,1.5a.2.2,0,0,0,.1.3h1.2a.2.2,0,0,0,.2-.2h0Z"/><path class="b" d="M77.1,16.7H75.7a.2.2,0,0,1-.2-.2h0V7.7a.3.3,0,0,1,.3-.2H76l4.4,4.8h.3V7.9a.2.2,0,0,1,.2-.2h1.5a.2.2,0,0,1,.2.2h0v8.8a.3.3,0,0,1-.3.2h-.3l-4.4-4.6h-.3v4.3a.2.2,0,0,1-.2.2Z"/><path class="b" d="M87.8,16.5V7.9a.2.2,0,0,1,.2-.2h1.5a.2.2,0,0,1,.2.2h0v8.6a.2.2,0,0,1-.2.2H88.1a.2.2,0,0,1-.2-.2Z"/><path class="b" d="M111.7,16.8c-6.4,0-6.7-9,0-9.2a6.8,6.8,0,0,1,2.1.3.2.2,0,0,1,.1.2l-.2,1.4a.2.2,0,0,1-.3.2h0a5.1,5.1,0,0,0-1.8-.2,2.8,2.8,0,1,0,0,5.5h.6V12.4a.2.2,0,0,1,.2-.2H114a.2.2,0,0,1,.2.2h0v3.8A5.3,5.3,0,0,1,111.7,16.8Z"/><path class="b" d="M121.2,8.7v2.3a.2.2,0,0,0,.2.2h3.1a.2.2,0,0,1,.2.2h0v1.4a.2.2,0,0,1-.2.2h-3.1a.2.2,0,0,0-.2.2h0v3.2a.2.2,0,0,1-.2.2h-1.5a.2.2,0,0,1-.2-.2h0V6.9a.2.2,0,0,1,.2-.2h5.4a.2.2,0,0,1,.2.2h0V8.3a.2.2,0,0,1-.2.2h-3.5a.2.2,0,0,0-.2.2Z"/><path class="b" d="M128.9,13.6V7.9a.2.2,0,0,1,.2-.2h1.5a.2.2,0,0,1,.2.2h0v5.7c0,1.9,3.2,1.9,3.2,0V7.9a.2.2,0,0,1,.2-.2h1.5a.2.2,0,0,1,.2.2h0v5.7C135.9,17.9,128.9,17.9,128.9,13.6Z"/><path class="b" d="M142.8,7.9v6.8a.2.2,0,0,0,.2.2h2.6a.2.2,0,0,1,.2.2h0v1.4a.2.2,0,0,1-.2.2h-4.6a.2.2,0,0,1-.2-.2h0V7.9a.2.2,0,0,1,.2-.2h1.5a.2.2,0,0,1,.2.2Z"/><path class="b" d="M151.9,7.9v6.8a.2.2,0,0,0,.2.2h2.6a.2.2,0,0,1,.2.2h0v1.4a.2.2,0,0,1-.2.2h-4.6a.2.2,0,0,1-.2-.2h0V7.9a.2.2,0,0,1,.2-.2h1.5a.2.2,0,0,1,.2.2Z"/><path class="b" d="M96.6,16.7H95.1a.2.2,0,0,1-.2-.2h0V7.7a.3.3,0,0,1,.3-.2h.3l4.4,4.8h.3V7.9a.2.2,0,0,1,.2-.2H102a.2.2,0,0,1,.2.2h0v8.8a.3.3,0,0,1-.3.2h-.3l-4.4-4.6h-.3v4.3a.2.2,0,0,1-.2.2Z"/></svg>