<svg xmlns="http://www.w3.org/2000/svg" width="67.5" height="67.5" viewBox="0 0 67.5 67.5"><defs><style>.a{fill:#fff;}</style></defs><title>Asset 5</title><path class="a" d="M33.8,6.1c9,0,10.1,0,13.6.2a18.7,18.7,0,0,1,6.3,1.2A10.5,10.5,0,0,1,57.6,10a10.5,10.5,0,0,1,2.5,3.9,18.7,18.7,0,0,1,1.2,6.3c.2,3.6.2,4.6.2,13.6s0,10.1-.2,13.6a18.7,18.7,0,0,1-1.2,6.3,11.2,11.2,0,0,1-6.4,6.4,18.7,18.7,0,0,1-6.3,1.2c-3.6.2-4.6.2-13.6.2s-10.1,0-13.6-.2a18.7,18.7,0,0,1-6.3-1.2A10.5,10.5,0,0,1,10,57.6a10.5,10.5,0,0,1-2.5-3.9,18.7,18.7,0,0,1-1.2-6.3c-.2-3.6-.2-4.6-.2-13.6s0-10.1.2-13.6a18.7,18.7,0,0,1,1.2-6.3A10.5,10.5,0,0,1,10,10a10.5,10.5,0,0,1,3.9-2.5,18.7,18.7,0,0,1,6.3-1.2c3.6-.2,4.6-.2,13.6-.2m0-6.1C24.6,0,23.4,0,19.8.2a24.8,24.8,0,0,0-8.2,1.6,16.6,16.6,0,0,0-6,3.9,16.6,16.6,0,0,0-3.9,6A24.8,24.8,0,0,0,.2,19.8C0,23.4,0,24.6,0,33.8S0,44.1.2,47.7a24.8,24.8,0,0,0,1.6,8.2,16.6,16.6,0,0,0,3.9,6,16.6,16.6,0,0,0,6,3.9,24.8,24.8,0,0,0,8.2,1.6c3.6.2,4.8.2,13.9.2s10.3,0,13.9-.2a24.8,24.8,0,0,0,8.2-1.6,17.3,17.3,0,0,0,9.9-9.9,24.8,24.8,0,0,0,1.6-8.2c.2-3.6.2-4.8.2-13.9s0-10.3-.2-13.9a24.8,24.8,0,0,0-1.6-8.2,16.6,16.6,0,0,0-3.9-6,16.6,16.6,0,0,0-6-3.9A24.8,24.8,0,0,0,47.7.2C44.1,0,42.9,0,33.8,0Z"/><path class="a" d="M33.8,16.4A17.3,17.3,0,1,0,51.1,33.8,17.3,17.3,0,0,0,33.8,16.4Zm0,28.6A11.3,11.3,0,1,1,45,33.8,11.3,11.3,0,0,1,33.8,45Z"/><circle class="a" cx="51.8" cy="15.7" r="4.1"/></svg>