<svg xmlns="http://www.w3.org/2000/svg" width="68.3" height="54.6" viewBox="0 0 68.3 54.6"><defs><style>.a{fill:#fff;}</style></defs><title>Asset 4</title><path class="a" d="M66.4,1a28.3,28.3,0,0,1-8.9,3.4A14.1,14.1,0,0,0,47.3,0,13.8,13.8,0,0,0,33.6,16.9,40,40,0,0,1,4.8,2.5,13.6,13.6,0,0,0,2.9,9.5,13.7,13.7,0,0,0,9.1,20.9a14.1,14.1,0,0,1-6.3-1.7v.2A13.9,13.9,0,0,0,14,32.9a14.3,14.3,0,0,1-3.7.5l-2.6-.2a14,14,0,0,0,13.1,9.6A28.4,28.4,0,0,1,3.3,48.6L0,48.5a40.2,40.2,0,0,0,21.5,6.2c25.8,0,39.9-21,39.9-39.3,0-.6,0-1.2,0-1.8a28.2,28.2,0,0,0,7-7.1,28.3,28.3,0,0,1-8,2.2A13.9,13.9,0,0,0,66.4,1Z"/></svg>