<svg xmlns="http://www.w3.org/2000/svg" xmlns:xlink="http://www.w3.org/1999/xlink" width="157.7" height="157.7" viewBox="0 0 157.7 157.7"><defs><style>.a{fill:none;}.b{fill:#fff;}.c{clip-path:url(#a);}.d{fill:#e5656c;}.e{fill:#343b47;}</style><clipPath id="a"><path class="a" d="M109.7,61.6H53.1a5,5,0,0,0-5,5V76.8h3.2v35.6a3.9,3.9,0,0,0,3.9,3.9h50.2a6.5,6.5,0,0,0,6.5-6.5V76.8h2.9V66.6A5,5,0,0,0,109.7,61.6Z"/></clipPath></defs><title>Asset 3</title><circle class="b" cx="78.8" cy="78.8" r="78.8"/><g class="c"><path class="d" d="M58,50.9l-2.8-2.7a1.5,1.5,0,0,0-2.2.1L52,49.4l-1.1-1.1a1.5,1.5,0,0,0-2.2.1L46,51.2a1.6,1.6,0,0,0,.1,2.2l.3.2,5.4,5.2h.5l.4-.2h0l5.2-5.4.3-.3a1.6,1.6,0,0,0-.1-2.2Z"/><path class="d" d="M75.2,50.5l-2.8-2.7a1.5,1.5,0,0,0-2.2.1L69.2,49l-1.1-1.1a1.5,1.5,0,0,0-2.2.1l-2.7,2.8a1.6,1.6,0,0,0,.1,2.2l.3.2L69,58.4h.5l.4-.2h0L75,52.9l.3-.3a1.6,1.6,0,0,0-.1-2.2Z"/><path class="d" d="M92.4,50l-2.8-2.7a1.5,1.5,0,0,0-2.2.1l-1.1,1.1-1.1-1.1a1.5,1.5,0,0,0-2.2.1l-2.7,2.8a1.6,1.6,0,0,0,.1,2.2l.3.2,5.4,5.2h.5l.4-.2h0l5.2-5.4.3-.3a1.6,1.6,0,0,0-.1-2.2Z"/><path class="d" d="M109.6,49.6l-2.8-2.7a1.5,1.5,0,0,0-2.2.1l-1.1,1.1L102.5,47a1.5,1.5,0,0,0-2.2.1l-2.7,2.8a1.6,1.6,0,0,0,.1,2.2l.3.2,5.4,5.2h.5l.4-.2h0l5.2-5.4.3-.3a1.6,1.6,0,0,0-.1-2.2Z"/><path class="d" d="M126.8,49.2,124,46.5a1.5,1.5,0,0,0-2.2.1l-1.1,1.1-1.1-1.1a1.5,1.5,0,0,0-2.2.1l-2.7,2.8a1.6,1.6,0,0,0,.1,2.2l.3.2,5.4,5.2h.5l.4-.2h0l5.2-5.4.3-.3a1.6,1.6,0,0,0-.1-2.2Z"/><path class="d" d="M67,63.7,64.1,61A1.5,1.5,0,0,0,62,61l-1.1,1.1-1.1-1.1a1.5,1.5,0,0,0-2.2.1L54.9,64a1.6,1.6,0,0,0,.1,2.2l.3.2,5.4,5.2h.5l.4-.2h0l5.2-5.4.3-.3a1.6,1.6,0,0,0-.1-2.2Z"/><path class="d" d="M84.1,63.2l-2.8-2.7a1.5,1.5,0,0,0-2.2.1l-1.1,1.1L77,60.7a1.5,1.5,0,0,0-2.2.1l-2.7,2.8a1.6,1.6,0,0,0,.1,2.2l.3.2,5.4,5.2h.5l.4-.2h0l5.2-5.4.3-.3a1.6,1.6,0,0,0-.1-2.2Z"/><path class="d" d="M101.3,62.8l-2.8-2.7a1.5,1.5,0,0,0-2.2.1l-1.1,1.1-1.1-1.1a1.5,1.5,0,0,0-2.2.1l-2.7,2.8a1.6,1.6,0,0,0,.1,2.2l.3.2,5.4,5.2h.5l.4-.2h0l5.2-5.4.3-.3a1.6,1.6,0,0,0-.1-2.2Z"/><path class="d" d="M118.5,62.4l-2.8-2.7a1.5,1.5,0,0,0-2.2.1l-1.1,1.1-1.1-1.1a1.5,1.5,0,0,0-2.2.1l-2.7,2.8a1.6,1.6,0,0,0,.1,2.2l.3.2,5.4,5.2h.5l.4-.2h0l5.2-5.4.3-.3a1.6,1.6,0,0,0-.1-2.2Z"/><path class="d" d="M135.7,61.9l-2.8-2.7a1.5,1.5,0,0,0-2.2.1l-1.1,1.1-1.1-1.1a1.5,1.5,0,0,0-2.2.1l-2.7,2.8a1.6,1.6,0,0,0,.1,2.2l.3.2,5.4,5.2h.5l.4-.2h0l5.2-5.4.3-.3a1.6,1.6,0,0,0-.1-2.2Z"/><path class="d" d="M58.7,76.1l-2.8-2.7a1.5,1.5,0,0,0-2.2.1l-1.1,1.1-1.1-1.1a1.5,1.5,0,0,0-2.2.1l-2.7,2.8a1.6,1.6,0,0,0,.1,2.2l.3.2,5.4,5.2h.5l.4-.2h0l5.2-5.4.3-.3a1.6,1.6,0,0,0-.1-2.2Z"/><path class="d" d="M75.9,75.6,73,72.9a1.5,1.5,0,0,0-2.2.1l-1.1,1.1L68.7,73a1.5,1.5,0,0,0-2.2.1l-2.7,2.8a1.6,1.6,0,0,0,.1,2.2l.3.2,5.4,5.2h.5l.4-.2h0l5.2-5.4.3-.3a1.6,1.6,0,0,0-.1-2.2Z"/><path class="d" d="M93.1,75.2l-2.8-2.7a1.5,1.5,0,0,0-2.2.1L87,73.7l-1.1-1.1a1.5,1.5,0,0,0-2.2.1L81,75.5a1.6,1.6,0,0,0,.1,2.2l.3.2,5.4,5.2h.5l.4-.2h0l5.2-5.4.3-.3a1.6,1.6,0,0,0-.1-2.2Z"/><path class="d" d="M110.3,74.7l-2.8-2.7a1.5,1.5,0,0,0-2.2.1l-1.1,1.1-1.1-1.1a1.5,1.5,0,0,0-2.2.1l-2.7,2.8a1.6,1.6,0,0,0,.1,2.2l.3.2,5.4,5.2h.5l.4-.2h0l5.2-5.4.3-.3a1.6,1.6,0,0,0-.1-2.2Z"/><path class="d" d="M67.6,88.8l-2.8-2.7a1.5,1.5,0,0,0-2.2.1l-1.1,1.1-1.1-1.1a1.5,1.5,0,0,0-2.2.1l-2.7,2.8a1.6,1.6,0,0,0,.1,2.2l.3.2,5.4,5.2h.5l.4-.2h0l5.2-5.4.3-.3a1.6,1.6,0,0,0-.1-2.2Z"/><path class="d" d="M84.8,88.4,82,85.7a1.5,1.5,0,0,0-2.2.1l-1.1,1.1-1.1-1.1a1.5,1.5,0,0,0-2.2.1l-2.7,2.8a1.6,1.6,0,0,0,.1,2.2l.3.2,5.4,5.2H79l.4-.2h0l5.2-5.4.3-.3a1.6,1.6,0,0,0-.1-2.2Z"/><path class="d" d="M102,87.9l-2.8-2.7a1.5,1.5,0,0,0-2.2.1l-1.1,1.1-1.1-1.1a1.5,1.5,0,0,0-2.2.1L90,88.2a1.6,1.6,0,0,0,.1,2.2l.3.2,5.4,5.2h.5l.4-.2h0l5.2-5.4.3-.3a1.6,1.6,0,0,0-.1-2.2Z"/><path class="d" d="M136.4,87.1l-2.8-2.7a1.5,1.5,0,0,0-2.2.1l-1.1,1.1-1.1-1.1a1.5,1.5,0,0,0-2.2.1l-2.7,2.8a1.6,1.6,0,0,0,.1,2.2l.3.2,5.4,5.2h.5l.4-.2h0l5.2-5.4.3-.3a1.6,1.6,0,0,0-.1-2.2Z"/><path class="d" d="M59.3,101.2l-2.8-2.7a1.5,1.5,0,0,0-2.2.1l-1.1,1.1-1.1-1.1a1.5,1.5,0,0,0-2.2.1l-2.7,2.8a1.6,1.6,0,0,0,.1,2.2l.3.2,5.4,5.2h.5l.4-.2h0l5.2-5.4.3-.3a1.6,1.6,0,0,0-.1-2.2Z"/><path class="d" d="M76.5,100.8l-2.8-2.7a1.5,1.5,0,0,0-2.2.1l-1.1,1.1-1.1-1.1a1.5,1.5,0,0,0-2.2.1l-2.7,2.8a1.6,1.6,0,0,0,.1,2.2l.3.2,5.4,5.2h.5l.4-.2h0l5.2-5.4.3-.3a1.6,1.6,0,0,0-.1-2.2Z"/><path class="d" d="M93.7,100.3l-2.8-2.7a1.5,1.5,0,0,0-2.2.1l-1.1,1.1-1.1-1.1a1.5,1.5,0,0,0-2.2.1l-2.7,2.8a1.6,1.6,0,0,0,.1,2.2l.3.2,5.4,5.2h.5l.4-.2h0l5.2-5.4.3-.3a1.6,1.6,0,0,0-.1-2.2Z"/><path class="d" d="M110.9,99.9l-2.8-2.7a1.5,1.5,0,0,0-2.2.1l-1.1,1.1-1.1-1.1a1.5,1.5,0,0,0-2.2.1l-2.7,2.8a1.6,1.6,0,0,0,.1,2.2l.3.2,5.4,5.2h.5l.4-.2h0l5.2-5.4.3-.3a1.6,1.6,0,0,0-.1-2.2Z"/><path class="d" d="M128.1,99.5l-2.8-2.7a1.5,1.5,0,0,0-2.2.1L122,97.9l-1.1-1.1a1.5,1.5,0,0,0-2.2.1l-2.7,2.8a1.6,1.6,0,0,0,.1,2.2l.3.2,5.4,5.2h.5l.4-.2h0l5.2-5.4.3-.3a1.6,1.6,0,0,0-.1-2.2Z"/><path class="d" d="M68.2,114l-2.8-2.7a1.5,1.5,0,0,0-2.2.1l-1.1,1.1-1.1-1.1a1.5,1.5,0,0,0-2.2.1l-2.7,2.8a1.6,1.6,0,0,0,.1,2.2l.3.2,5.4,5.2h.5l.4-.2h0l5.2-5.4.3-.3a1.6,1.6,0,0,0-.1-2.2Z"/><path class="d" d="M85.4,113.5l-2.8-2.7a1.5,1.5,0,0,0-2.2.1L79.4,112,78.3,111a1.5,1.5,0,0,0-2.2.1l-2.7,2.8a1.6,1.6,0,0,0,.1,2.2l.3.2,5.4,5.2h.5l.4-.2h0l5.2-5.4.3-.3a1.6,1.6,0,0,0-.1-2.2Z"/><path class="d" d="M102.6,113.1l-2.8-2.7a1.5,1.5,0,0,0-2.2.1l-1.1,1.1-1.1-1.1a1.5,1.5,0,0,0-2.2.1l-2.7,2.8a1.6,1.6,0,0,0,.1,2.2l.3.2,5.4,5.2h.5l.4-.2h0l5.2-5.4.3-.3a1.6,1.6,0,0,0-.1-2.2Z"/><path class="d" d="M137,112.2l-2.8-2.7a1.5,1.5,0,0,0-2.2.1l-1.1,1.1-1.1-1.1a1.5,1.5,0,0,0-2.2.1l-2.7,2.8a1.6,1.6,0,0,0,.1,2.2l.3.2,5.4,5.2h.5l.4-.2h0l5.2-5.4.3-.3a1.6,1.6,0,0,0-.1-2.2Z"/></g><path class="d" d="M75.5,43.9A8.4,8.4,0,1,0,63.4,55.5c3.2,3.3,18,6.9,18,6.7S78.7,47.2,75.5,43.9Z"/><path class="d" d="M88.4,44.3a8.4,8.4,0,1,1,12.1,11.6c-3.2,3.3-18,6.9-18,6.7S85.2,47.7,88.4,44.3Z"/><path class="e" d="M101.2,121H53.8a7.7,7.7,0,0,1-7.7-7.7V78.9h62.8v34.3A7.7,7.7,0,0,1,101.2,121ZM48.5,81.4v31.9a5.2,5.2,0,0,0,5.2,5.2h47.4a5.2,5.2,0,0,0,5.2-5.2V81.4Z"/><path class="e" d="M85.5,121h-16V63.7h16Zm-13.6-2.4H83V66.1H71.9Z"/><path class="e" d="M112,81.4H42.9V69.9a6.2,6.2,0,0,1,6.2-6.2h56.7a6.2,6.2,0,0,1,6.2,6.2ZM45.4,78.9h64.2v-9a3.8,3.8,0,0,0-3.8-3.8H49.2a3.8,3.8,0,0,0-3.8,3.8Z"/><path class="e" d="M77.4,65.9c-2.7,0-16.1-4.1-19-7.1A9.6,9.6,0,1,1,72.3,45.5c3.4,3.5,6,17.3,6.2,18.9a1.3,1.3,0,0,1,0,.3,1.2,1.2,0,0,1-.8,1.1ZM65.4,45a7.1,7.1,0,0,0-5.2,12.1c2.2,2.3,11.7,5.1,15.6,6-1-4.9-3.1-13.7-5.3-15.9h0a7.1,7.1,0,0,0-5-2.2Z"/><path class="e" d="M77.6,65.9h-.4a1.2,1.2,0,0,1-.8-1.1,1.2,1.2,0,0,1,0-.2c.3-1.6,2.9-15.4,6.2-18.9A9.6,9.6,0,1,1,96.6,58.8C93.7,61.8,80.4,65.9,77.6,65.9Zm.1-1.2h0ZM89.6,45h-.2a7.1,7.1,0,0,0-5,2.2h0c-2.1,2.2-4.3,11-5.3,15.9,3.9-.9,13.4-3.7,15.6-6A7.1,7.1,0,0,0,89.6,45Zm-6,1.4h0Z"/></svg>