<svg xmlns="http://www.w3.org/2000/svg" width="157.7" height="157.7" viewBox="0 0 157.7 157.7"><defs><style>.a{fill:#fff;}.b{fill:#e5656c;}.c{fill:#343b47;}</style></defs><title>Asset 1</title><circle class="a" cx="78.8" cy="78.8" r="78.8"/><path class="b" d="M108.9,68.1,120,72.8a1,1,0,0,1,0,1.9l-10.9,4.5a1,1,0,0,1-1.4-.9l-.2-9.2A1,1,0,0,1,108.9,68.1Z"/><path class="c" d="M122.1,78.5h-.4L78.5,61.8a1.2,1.2,0,0,1,.9-2.3l43.2,16.7a1.2,1.2,0,0,1-.4,2.4Z"/><path class="c" d="M35.6,78.5a1.2,1.2,0,0,1-.4-2.4L78.3,59.5a1.2,1.2,0,0,1,.9,2.3L36,78.4Z"/><path class="a" d="M54.7,43H96.5a7.5,7.5,0,0,1,7.5,7.5v52.7a7.5,7.5,0,0,1-7.5,7.5H54.7a0,0,0,0,1,0,0V43A0,0,0,0,1,54.7,43Z"/><path class="b" d="M60.2,39.2H66a1.9,1.9,0,0,1,1.9,1.9V105a1.9,1.9,0,0,1-1.9,1.9H58.3a0,0,0,0,1,0,0V41.1a1.9,1.9,0,0,1,1.9-1.9Z"/><path class="c" d="M96.5,111.9h-43V41.8h43a8.7,8.7,0,0,1,8.7,8.7v52.7A8.7,8.7,0,0,1,96.5,111.9ZM56,109.4H96.5a6.3,6.3,0,0,0,6.3-6.3V50.5a6.3,6.3,0,0,0-6.3-6.3H56Z"/><path class="c" d="M65.5,111.9H53.5V41.8H65.5ZM56,109.4H63V44.3H56Z"/><path class="b" d="M93.8,67l-4.5-4.5a2.5,2.5,0,0,0-3.6,0L84,64.3l-1.8-1.8a2.5,2.5,0,0,0-3.6,0L74.1,67a2.6,2.6,0,0,0,0,3.6l.4.4,8.7,8.7h0l.7.2h0l.7-.2h0L93.4,71l.4-.4a2.6,2.6,0,0,0,0-3.6Z"/><polygon class="a" points="35.6 77.4 78.8 94.1 78.8 121.8 35.6 105.1 35.6 77.4"/><polygon class="a" points="122.1 77.4 78.9 94.1 78.9 121.8 122.1 105.1 122.1 77.4"/><path class="c" d="M78.8,123h-.4L35.1,106.3a1.2,1.2,0,0,1-.8-1.1V77.4A1.2,1.2,0,0,1,36,76.3L79.2,93a1.2,1.2,0,0,1,.8,1.1v27.7a1.2,1.2,0,0,1-.5,1Zm-42-18.7L77.5,120V95L36.8,79.2Z"/><path class="b" d="M41.6,80.5l40,15.4a1.6,1.6,0,0,1,1,1.5v19a1.6,1.6,0,0,1-2.2,1.5l-40-15.4a1.6,1.6,0,0,1-1-1.5V82A1.6,1.6,0,0,1,41.6,80.5Z"/><path class="c" d="M78.9,123l-.7-.2a1.2,1.2,0,0,1-.5-1V94.1a1.2,1.2,0,0,1,.8-1.1l43.2-16.7a1.2,1.2,0,0,1,1.7,1.1v27.7a1.2,1.2,0,0,1-.8,1.1L79.3,122.9ZM80.1,95v25l40.8-15.7v-25Z"/><polygon class="a" points="35.6 77.4 78.8 94.1 67.7 105.3 24.5 88.6 35.6 77.4"/><path class="c" d="M67.7,106.5h-.4L24.1,89.7a1.2,1.2,0,0,1-.4-2l11-11.1a1.2,1.2,0,0,1,1.3-.3L79.2,93a1.2,1.2,0,0,1,.4,2l-11,11.1A1.2,1.2,0,0,1,67.7,106.5Zm-41-18.4,40.7,15.7,9.1-9.2L35.9,78.9Z"/><polygon class="a" points="122.1 77.4 78.9 94.1 89.9 105.3 133.1 88.6 122.1 77.4"/><path class="c" d="M89.9,106.5a1.2,1.2,0,0,1-.9-.4L78,95a1.2,1.2,0,0,1,.4-2l43.2-16.7a1.2,1.2,0,0,1,1.3.3l11,11.1a1.2,1.2,0,0,1-.4,2L90.4,106.4ZM81.1,94.6l9.1,9.2,40.7-15.7-9.1-9.2Z"/></svg>