<svg xmlns="http://www.w3.org/2000/svg" width="157.7" height="157.7" viewBox="0 0 157.7 157.7"><defs><style>.a{fill:#fff;}.b{fill:#e5656c;}.c{fill:#343b47;}</style></defs><title>Asset 2</title><circle class="a" cx="78.8" cy="78.8" r="78.8"/><path class="b" d="M44.9,43.9l77.8,46.6a1.2,1.2,0,0,0,1.8-1V50.7a9.1,9.1,0,0,0-9.1-9.1H45.5A1.2,1.2,0,0,0,44.9,43.9Z"/><circle class="a" cx="79.9" cy="70" r="12.6"/><path class="b" d="M78.6,61.3a9.8,9.8,0,1,0,9.8,9.8A9.8,9.8,0,0,0,78.6,61.3Zm-3,15.4-.3-11.2L84,70.9Z"/><path class="b" d="M79.3,55.3h6.6a1.9,1.9,0,0,1,1.9,1.9v81.5a1.9,1.9,0,0,1-1.9,1.9H79.3a3.5,3.5,0,0,1-3.5-3.5V58.8A3.5,3.5,0,0,1,79.3,55.3Z" transform="translate(-16.1 179.8) rotate(-90)"/><path class="c" d="M115,108.4H42.1a7.4,7.4,0,0,1-7.4-7.4V51.4a7.4,7.4,0,0,1,7.4-7.4H115a7.4,7.4,0,0,1,7.4,7.4V101A7.4,7.4,0,0,1,115,108.4Zm-72.8-62a5,5,0,0,0-5,5V101a5,5,0,0,0,5,5H115a5,5,0,0,0,5-5V51.4a5,5,0,0,0-5-5Z"/><rect class="c" x="35.9" y="94.5" width="85.2" height="2.45"/><path class="c" d="M96.4,120.6H60.8a1.2,1.2,0,1,1,0-2.4H96.4a1.2,1.2,0,1,1,0,2.4Z"/><rect class="c" x="77.3" y="107.4" width="2.4" height="12.22"/></svg>