<svg xmlns="http://www.w3.org/2000/svg" width="169.6" height="169.6" viewBox="0 0 169.6 169.6"><defs><style>.a{fill:#fff;}.b{fill:#e5656c;}.c{fill:#343b47;}</style></defs><title>Asset 7</title><circle class="a" cx="84.8" cy="84.8" r="84.8"/><path class="b" d="M91.6,57.3h34.5a11,11,0,0,1,11,11v45.4a11,11,0,0,1-11,11H91.6a3.5,3.5,0,0,1-3.5-3.5V60.8A3.5,3.5,0,0,1,91.6,57.3Z"/><path class="b" d="M42.5,57.3H77a11,11,0,0,1,11,11v45.4a11,11,0,0,1-11,11H42.5a3.5,3.5,0,0,1-3.5-3.5V60.8A3.5,3.5,0,0,1,42.5,57.3Z" transform="translate(127 181.9) rotate(180)"/><path class="a" d="M84.6,53.1h41.6a7.5,7.5,0,0,1,7.5,7.5V113a7.5,7.5,0,0,1-7.5,7.5H84.6a0,0,0,0,1,0,0V53.1A0,0,0,0,1,84.6,53.1Z"/><path class="c" d="M126.2,121.7H83.4V51.9h42.8a8.7,8.7,0,0,1,8.7,8.7V113A8.7,8.7,0,0,1,126.2,121.7Zm-40.3-2.4h40.3a6.2,6.2,0,0,0,6.2-6.2V60.6a6.2,6.2,0,0,0-6.2-6.2H85.8Z"/><path class="b" d="M123.3,80.1c-2.7,1.5-4.4,2.3-7.7,1.7-1.5-.3-2.9-.9-4.5-1a8.7,8.7,0,0,0-4.3.9c-1.7.6-2.9,1.4-5,.8s-2.4-1.4-3.7-1.8a5.2,5.2,0,0,0-4,.2c-1.5.5-.9,2.9.7,2.4s4.6,1.3,7.4,2,3.1,0,5-.8c4.4-1.9,6.4,0,10.4.1s4.8-1.1,7-2.3a1.3,1.3,0,0,0-1.3-2.2Z"/><path class="b" d="M123.3,89.4c-3.5,1.5-5.5,1.3-9,.7a8.2,8.2,0,0,0-2-.3c-1.8.2-3,1.7-4.7,2.1s-3.9-1.1-6.5-1.3-5.2,1.4-5.5,1-3.1-.1-2.2,1.3,2,1.7,3.9,1.6l1.7-.8a5,5,0,0,1,4.9.7,8.5,8.5,0,0,0,2.8.8,6.3,6.3,0,0,0,2-.3l1.4-.8q2.6-2.5,5.2-.8c3.5.6,6.2-.2,9.4-1.6,1.5-.6.2-2.8-1.3-2.2Z"/><path class="b" d="M94.8,65.7a14.1,14.1,0,0,1,7.7-.1c1.2.2,2,1,3.4.9s2-1,3.2-1.6c3.6-1.7,4.7.4,8,.8,1.2.1,5.4-1.4,5.7-.9s3.1.1,2.2-1.3-2-1.7-3.9-1.6-1.4,1.7-4.5,1.1-2.9-1.6-4.7-1.8-4.3,2.5-7.1,2.6-3.6-1.3-5.3-1.4a13.2,13.2,0,0,0-5.3.9c-1.5.5-.9,2.9.7,2.4Z"/><path class="b" d="M124.3,100.2c-2.9-.6-6.1-1.7-9-1.8s-4.2,1.8-7.1,1.2-3.4-1.7-5.4-1.9-6.4,2.6-7.7,1.9-2.6,1.3-1.3,2.2,2.3.7,4.1.2,1.6-2.3,5.8-1.5c1.4.3,2.4,1.2,3.8,1.5a8.9,8.9,0,0,0,4.6.1c1.6-.3,3-1,4.8-.8a66.3,66.3,0,0,1,6.6,1.4c1.6.3,2.2-2.1.7-2.4Z"/><path class="b" d="M94.2,73.6c2.6.6,5.4,1.7,8.1,1.8s4.2-1.8,7.1-1.2,3.4,1.7,5.4,1.9,6.4-3,8.6-1.9,2.7-1.4,1.3-2.2-2.9-.7-5-.2-1.2,2.4-5.8,1.5c-1.4-.3-2.4-1.2-3.8-1.5a8.9,8.9,0,0,0-4.6-.1c-1.6.3-2.9,1-4.8.8s-3.9-1-5.8-1.4-2.2,2.1-.7,2.4Z"/><path class="b" d="M109.5,106.3c-1.7.3-3.6-1-5.3-1.1a5.8,5.8,0,0,0-3.6,1.1c-1.1.8-1.2,1.5-2.9,1.4s-1.1-.6-1.7-.7a2.6,2.6,0,0,0-2.4.9c-1.1,1.2.6,2.9,1.8,1.8s2.5.8,3,.8a3.6,3.6,0,0,0,2.2-.9c1.8-1.3,3.3-2.2,5.6-1.5s2.3.8,3.9.5.9-2.7-.7-2.4Z"/><path class="a" d="M35.5,53.1H77.1a7.5,7.5,0,0,1,7.5,7.5V113a7.5,7.5,0,0,1-7.5,7.5H35.5a0,0,0,0,1,0,0V53.1A0,0,0,0,1,35.5,53.1Z" transform="translate(120.1 173.6) rotate(180)"/><path class="c" d="M85.8,121.7H43a8.7,8.7,0,0,1-8.7-8.7V60.6A8.7,8.7,0,0,1,43,51.9H85.8ZM43,54.3a6.2,6.2,0,0,0-6.2,6.2V113a6.2,6.2,0,0,0,6.2,6.2H83.3V54.3Z"/><rect class="a" x="82.2" y="51.6" width="4.2" height="49.35"/><rect class="b" x="84.4" y="49.1" width="4.3" height="49.2" rx="1.1" ry="1.1"/><rect class="a" x="80.8" y="92" width="6.6" height="10.1"/><rect class="b" x="83.4" y="90" width="7.1" height="10.07" rx="0.6" ry="0.6"/><path class="c" d="M87.7,103.3H81.3a1.2,1.2,0,0,1-1.2-1.2V92a1.2,1.2,0,0,1,1.2-1.2h6.4A1.2,1.2,0,0,1,89,92V102A1.2,1.2,0,0,1,87.7,103.3Zm-5.2-2.4h4V93.2h-4Z"/><path class="c" d="M86.6,93.2H82.5A1.2,1.2,0,0,1,81.3,92V51.7a1.2,1.2,0,0,1,1.2-1.2h4.1a1.2,1.2,0,0,1,1.2,1.2V92A1.2,1.2,0,0,1,86.6,93.2Zm-2.9-2.4h1.6V52.9H83.8Z"/><path class="b" d="M44.5,82.3c1.9,1.1,3.9,2.3,6.3,2.4,4.2.2,6.7-2.1,11.2-.1,1.7.7,2.4,1.3,4.4,1s4.9-3.2,8-2.1c1.5.5,2.2-1.9.7-2.4a5.5,5.5,0,0,0-4-.2c-1.1.3-2.1,1.1-3.1,1.5s-3.6.2-5.6-.5a9.4,9.4,0,0,0-4.3-.9c-4.8.4-7.5,2-12.1-.7a1.3,1.3,0,0,0-1.3,2.2Z"/><path class="b" d="M44.5,91.6c3.2,1.4,5.9,2.3,9.4,1.6q2.6-1.7,5.2.8l1.4.8a6.3,6.3,0,0,0,2,.3,8.5,8.5,0,0,0,2.8-.8,5,5,0,0,1,4.9-.7l1.7.8c1.9.1,2.8.1,3.9-1.6s-1.2-2.6-2.2-1.3-4.3-1-5.4-1c-2.7.1-3.9,2.1-6.7,1.3s-2.8-1.9-4.5-2.1a7.8,7.8,0,0,0-2.1.3c-3.3.6-5.7.7-9-.7-1.5-.6-2.7,1.5-1.3,2.2Z"/><path class="b" d="M74.9,63.3a13.2,13.2,0,0,0-5.3-.9c-1.7.1-3.7,1.4-5.3,1.4S60,61,57.2,61.2s-3,1.4-4.7,1.8-3-.9-4.5-1.1-2.8,0-3.9,1.6,1.2,2.6,2.2,1.3,4.5,1,5.5,1c3.7-.3,3.9-2.6,8.2-.8,1.3.5,1.6,1.4,3.1,1.6s2.5-.7,3.6-1a13,13,0,0,1,7.7.1c1.5.5,2.2-1.9.7-2.4Z"/><path class="b" d="M45.5,102.6c1.9-.4,3.8-.9,5.7-1.2s3.4.1,5.8.6a8.4,8.4,0,0,0,4.6-.1c1.2-.3,2.5-1.4,3.8-1.5s4,1,5.8,1.5,2.4.8,4.1-.2.1-3-1.3-2.2-5.3-1.8-7.1-1.9-3.9,1.4-6,1.8-4.6-1.1-7-1.2-6.4,1.3-9.1,1.8-.9,2.7.7,2.4Z"/><path class="b" d="M74.3,71.2c-1.6.4-3.3.9-4.9,1.2s-3.4-.1-5.6-.6a8.4,8.4,0,0,0-4.6.1c-1.2.3-2.5,1.4-3.8,1.5s-3.9-1-5.8-1.5-3-.7-5,.2-.2,2.9,1.3,2.2,5.6,1.8,8,1.9,3.9-1.4,6-1.8,4.6,1.1,7,1.2,5.8-1.3,8.2-1.8.9-2.8-.7-2.4Z"/><path class="b" d="M44.8,108.7a6.3,6.3,0,0,0,3.5-.4c1.4-.4,2.3-.7,3.7-.2a7.3,7.3,0,0,1,2.4,1.5,3.7,3.7,0,0,0,2,.8c.6,0,2.9-1,3.2-.8s2.9-.6,1.8-1.8a2.6,2.6,0,0,0-2.4-.9c-.6.1-1.2.6-1.7.7s-1.8-.6-2.9-1.4a5.7,5.7,0,0,0-3.6-1.1c-1.8,0-3.6,1.4-5.3,1.1s-2.2,2.1-.7,2.4Z"/><path class="a" d="M51.6,31.5h1A1.5,1.5,0,0,1,54.2,33v3.1a0,0,0,0,1,0,0H50.1a0,0,0,0,1,0,0V33a1.5,1.5,0,0,1,1.5-1.5Z" transform="translate(-8.1 18.5) rotate(-18.8)"/><path class="c" d="M50.1,38.2l-1.4-4.1a2.8,2.8,0,0,1,1.7-3.5l1-.3A2.8,2.8,0,0,1,55,32l1.4,4.1Zm2.2-5.6h-.1l-1,.3a.3.3,0,0,0-.2.4l.6,1.8,1.6-.5-.6-1.8-.2-.2Z"/><polygon class="a" points="72.6 84.9 71.7 91.5 66.9 86.8 50 37 55.7 35 72.6 84.9"/><path class="c" d="M71.7,92.8a1.2,1.2,0,0,1-.9-.3l-4.8-4.7-.3-.5L48.8,37.4a1.2,1.2,0,0,1,.8-1.6l5.7-1.9a1.2,1.2,0,0,1,1.6.8L73.8,84.5a1.2,1.2,0,0,1,.1.6l-.9,6.6a1.2,1.2,0,0,1-.8,1ZM68,86.2,70.8,89l.5-3.9L54.9,36.6l-3.4,1.1Z"/><path class="b" d="M56.6,32l-1-2.9a1.5,1.5,0,0,0-1.9-1l-1,.3a1.5,1.5,0,0,0-1,1.9l1,2.9-.9.3L68.7,83.5l4.8,4.7.9-6.6L57.5,31.7Z"/><path class="c" d="M50.1,38.2l-1.4-4.1a2.8,2.8,0,0,1,1.7-3.5l1-.3A2.8,2.8,0,0,1,55,32l1.4,4.1Zm2.2-5.6h-.1l-1,.3a.3.3,0,0,0-.2.4l.6,1.8,1.6-.5-.6-1.8-.2-.2Z"/><path class="c" d="M71.7,92.8a1.2,1.2,0,0,1-.9-.3l-4.8-4.7-.3-.5L48.8,37.4a1.2,1.2,0,0,1,.8-1.6l5.7-1.9a1.2,1.2,0,0,1,1.6.8L73.8,84.5a1.2,1.2,0,0,1,.1.6l-.9,6.6a1.2,1.2,0,0,1-.8,1ZM68,86.2,70.8,89l.5-3.9L54.9,36.6l-3.4,1.1Z"/><path class="c" d="M67.1,88a1.2,1.2,0,0,1-.4-2.4L72,83.8a1.2,1.2,0,0,1,.8,2.3l-5.3,1.8Z"/><path class="c" d="M52.3,57.5a1.2,1.2,0,0,1-1.2-.8L46.6,43.3a4.3,4.3,0,0,1,2.7-5.5l.9-.3a1.2,1.2,0,0,1,.8,2.3l-.9.3a1.9,1.9,0,0,0-1.2,2.4l4.5,13.4a1.2,1.2,0,0,1-.8,1.6Z"/></svg>